<svg id="Capa_1" enable-background="new 0 0 512 512" height="512" viewBox="0 0 512 512" width="512" xmlns="http://www.w3.org/2000/svg"><path d="m111.343 108.468c11.172 0 21.488-5.966 29.048-16.798 23.483-33.648 6.599-90.999-29.048-90.999-11.172 0-21.488 5.966-29.048 16.797-23.663 33.904-6.368 91 29.048 91zm0-92.797c13.488 0 24.882 17.813 24.882 38.899s-11.394 38.899-24.882 38.899-24.883-17.814-24.883-38.9c0-21.085 11.396-38.898 24.883-38.898z"/><path d="m46.103 90.355c-8.917-5.967-18.925-7.483-27.458-4.156-8.533 3.326-14.877 11.215-17.402 21.643-2.328 9.609-1.365 20.659 2.711 31.114 8.189 21.007 28.215 36.036 46.52 28.898 27.779-10.827 23.022-59.166-4.371-77.499zm-1.076 63.524c-10.137 3.951-22.24-7.908-27.097-20.37-2.929-7.512-3.697-15.58-2.109-22.136 2.857-11.794 11.953-15.239 21.94-8.552 18.553 12.415 21.745 45.414 7.266 51.058z"/><path d="m214.31 108.468c22.804 0 39.883-24.741 39.883-53.899s-17.081-53.898-39.883-53.898c-35.516 0-52.621 57.225-29.048 91 7.56 10.832 17.877 16.797 29.048 16.797zm0-92.797c13.488 0 24.883 17.813 24.883 38.899s-11.395 38.899-24.883 38.899-24.883-17.813-24.883-38.899 11.395-38.899 24.883-38.899z"/><path d="m302.638 163.699c27.452-18.372 32.075-66.701 4.371-77.499-27.372-10.673-57.081 27.614-49.231 60.012 5.302 21.895 26.204 29.972 44.86 17.487zm-28.173-43.154c2.928-7.512 7.822-13.972 13.428-17.723 17.57-11.763 28.301 8.957 19.83 30.689-5.727 14.694-18.268 23.809-27.097 20.37-10.136-3.953-11.02-20.876-6.161-33.336z"/><path d="m201.395 252.983c2.246-3.48 1.245-8.122-2.235-10.368-10.609-6.846-23.177-10.465-36.345-10.465-13.45 0-26.406 3.876-37.47 11.209-4.571 3.031-9.886 4.633-15.371 4.633-19.147 0-27.867-14.947-27.867-28.836 0-9.151 3.693-17.456 10.133-22.785l64.121-53.066c3.751-3.105 9.177-3.089 12.911 0l64.122 53.066c6.545 5.416 10.149 13.267 10.149 22.106.001 11.592-6.73 25.561-21.511 28.838-4.044.896-6.596 4.901-5.699 8.945.896 4.043 4.894 6.596 8.945 5.699 19.587-4.342 33.266-22.222 33.265-43.482 0-13.195-5.68-25.465-15.585-33.661l-64.122-53.066c-9.294-7.69-22.757-7.683-32.038 0l-64.121 53.066c-9.894 8.189-15.569 20.705-15.569 34.341 0 21.783 14.724 43.835 42.867 43.835 8.441 0 16.623-2.466 23.658-7.13 8.597-5.699 18.689-8.711 29.182-8.711 10.277 0 20.032 2.79 28.212 8.069 3.481 2.243 8.121 1.244 10.368-2.237z"/><path d="m268.633 265.807c-23.487 33.65-6.595 91 29.048 91 22.804 0 39.883-24.741 39.883-53.899-.001-49.476-44.62-71.933-68.931-37.101zm29.048 76c-13.488 0-24.883-17.813-24.883-38.899 0-21.085 11.395-38.899 24.883-38.899s24.883 17.813 24.883 38.899-11.395 38.899-24.883 38.899z"/><path d="m251.502 363.435c-4.076-10.456-10.845-19.242-19.062-24.741-28.361-18.979-57.145 10.128-42.149 48.602 14.642 37.56 55.727 41.095 63.922 7.254 2.328-9.609 1.365-20.659-2.711-31.115zm-11.866 27.583c-5.046 20.826-27.039 12.201-35.368-9.17-5.674-14.556-2.851-29.822 6.162-33.335 8.907-3.469 21.416 5.793 27.097 20.37 2.928 7.511 3.696 15.58 2.109 22.135z"/><path d="m400.647 356.807c11.172 0 21.488-5.966 29.048-16.797 6.987-10.011 10.835-23.187 10.835-37.101s-3.848-27.091-10.835-37.101c-15.665-22.443-42.451-22.415-58.096 0-23.7 33.959-6.296 90.999 29.048 90.999zm0-92.798c13.488 0 24.883 17.813 24.883 38.899s-11.395 38.899-24.883 38.899-24.882-17.813-24.882-38.899 11.395-38.899 24.882-38.899z"/><path d="m510.748 356.181c-5.283-21.817-26.133-30.021-44.86-17.487-32.229 21.569-30.431 79.23 4.976 79.23 25.635-.001 46.551-34.226 39.884-61.743zm-30.116 43.39c-17.593 11.772-28.308-8.94-19.83-30.689 8.362-21.454 30.344-29.908 35.368-9.17 3.327 13.736-3.788 31.996-15.538 39.859z"/><path d="m429.296 433.153-64.121-53.065c-9.273-7.677-22.735-7.699-32.039 0l-48.065 39.778c-3.19 2.641-3.637 7.368-.996 10.559 2.642 3.192 7.369 3.637 10.56.996l48.064-39.778c3.753-3.104 9.178-3.091 12.912 0l64.122 53.066c17.949 14.853 10.819 46.024-11.359 50.942-9.569 2.122-6.554 16.814 3.248 14.644 19.584-4.344 33.261-22.224 33.26-43.481-.001-13.195-5.681-25.464-15.586-33.661z"/><path d="m385.501 490.955c-10.61-6.847-23.179-10.467-36.348-10.467-13.452 0-26.408 3.876-37.47 11.209-4.571 3.031-9.887 4.633-15.372 4.633-26.736 0-34.187-29.756-22.555-46.385 2.373-3.394 1.546-8.071-1.849-10.444-3.394-2.375-8.07-1.546-10.444 1.848-18.26 26.114-4.746 69.981 34.848 69.981 23.271 0 25.883-15.841 52.841-15.841 10.277 0 20.033 2.79 28.213 8.07 3.48 2.246 8.122 1.247 10.369-2.234 2.248-3.482 1.247-8.123-2.233-10.37z"/></svg>